<svg width="135" height="20" viewBox="0 0 135 20" fill="none" xmlns="http://www.w3.org/2000/svg">
<path d="M3 16.5H2V0H17.0558V2.5H19V7.5H17.0558V10H19V15H17.0558V17.5H3V16.5ZM7.01859 7.5H13.5V6.5H14.5465V2.5H7.01859V7.5ZM8 14V15H14.5465V10H7.01859V14H8ZM24 17.5V15H22V5H27V15H34.5V5H39.5V17.5H24ZM47 2.5V0H52V2.5H47ZM42.5 17.5V15H47V7.5H44.7584V5H52V14H53V15H56.5V17.5H42.5ZM59.5 17.5V15H63.5V2.5H61.5V0H68.5V14H69.5V15H72.5V17.5H59.5ZM78 17.5V15H75.5V7.5H78V5H87.5V4H88.5V0H93.5V16.5H92.5V17.5H78ZM82.5 14V15H88.5V7.5H81.5V14H82.5Z" fill="#FF7409"/>
<path d="M96.5 17.5V15H101.5V2.5H96V0H112.5V2.5H108V3.5H107V15H112.5V17.5H96.5ZM120 17.5V7H115.5V4.5H120V0H125V4.5H129.5V7H127.5H125V8.5V17.5H120Z" fill="white"/>
</svg>
