<svg width="189" height="28" viewBox="0 0 189 28" fill="none" xmlns="http://www.w3.org/2000/svg">
<path d="M4.1998 23.1H2.7998V0H23.8779V3.5H26.5998V10.5H23.8779V14H26.5998V21H23.8779V24.5H4.1998V23.1ZM9.82583 10.5H18.8998V9.1H20.3649V3.5H9.82583V10.5ZM11.1998 19.6V21H20.3649V14H9.82583V19.6H11.1998ZM33.5998 24.5V21H30.7998V7H37.7998V21H48.2998V7H55.2998V24.5H33.5998ZM65.7998 3.5V0H72.7998V3.5H65.7998ZM59.4998 24.5V21H65.7998V10.5H62.6615V7H72.7998V19.6H74.1998V21H79.0998V24.5H59.4998ZM83.2998 24.5V21H88.8998V3.5H86.0998V0H95.8998V19.6H97.2998V21H101.5V24.5H83.2998ZM109.2 24.5V21H105.7V10.5H109.2V7H122.5V5.6H123.9V0H130.9V23.1H129.5V24.5H109.2ZM115.5 19.6V21H123.9V10.5H114.1V19.6H115.5Z" fill="#FF7409"/>
<path d="M135.1 24.5V21H142.1V3.5H134.4V0H157.5V3.5H151.2V4.9H149.8V21H157.5V24.5H135.1ZM168 24.5V9.8H161.7V6.3H168V0H175V6.3H181.3V9.8H178.5H175V11.9V24.5H168Z" fill="white"/>
</svg>
